<svg width="272" height="64" viewBox="0 0 272 64" fill="none" xmlns="http://www.w3.org/2000/svg">

<rect width="272" height="64" fill="#1C75D2"/>

<path d="M59.689 19.5141L49.2754 29.9276L40.2774 20.9295L29.8638 31.343" stroke="white" stroke-opacity="0.85" stroke-width="5"/>

<path d="M44.8269 46.5078L49.2754 42.0593L40.2774 33.0612L29.8638 43.4747" stroke="#EEEEEE" stroke-opacity="0.66" stroke-width="5"/>

<path d="M26.9319 46.4074L23.9999 49.3393" stroke="#EEEEEE" stroke-opacity="0.66" stroke-width="5"/>

<path d="M52.612 17.896C50.5899 17.896 49.4778 15.9751 49.4778 14.6607C49.4778 17.0063 47.321 17.7949 46.2426 17.896C48.669 17.896 49.4104 19.9854 49.4778 21.0302C49.4778 18.6846 51.5673 17.9634 52.612 17.896Z" fill="white" fill-opacity="0.85"/>

<path d="M73.9515 42V21.6364H81.21C82.7877 21.6364 84.0969 21.9081 85.1376 22.4517C86.1849 22.9953 86.9671 23.7476 87.4842 24.7088C88.0012 25.6634 88.2597 26.767 88.2597 28.0199C88.2597 29.2661 87.9979 30.3632 87.4742 31.3111C86.9572 32.2524 86.175 32.9848 85.1276 33.5085C84.0869 34.0322 82.7777 34.294 81.2001 34.294H75.7015V31.6491H80.9217C81.916 31.6491 82.7247 31.5066 83.3478 31.2216C83.9776 30.9366 84.4383 30.5223 84.7299 29.9787C85.0216 29.4351 85.1674 28.7822 85.1674 28.0199C85.1674 27.2509 85.0183 26.5848 84.72 26.0213C84.4283 25.4579 83.9676 25.027 83.3379 24.7287C82.7148 24.4238 81.8961 24.2713 80.8819 24.2713H77.024V42H73.9515ZM84.0041 32.8125L89.0353 42H85.5353L80.6035 32.8125H84.0041ZM109.094 21.6364H112.176V35.0298C112.176 36.455 111.841 37.7178 111.172 38.8182C110.502 39.9119 109.561 40.7737 108.348 41.4034C107.135 42.0265 105.713 42.3381 104.082 42.3381C102.458 42.3381 101.04 42.0265 99.8265 41.4034C98.6134 40.7737 97.6722 39.9119 97.0026 38.8182C96.3331 37.7178 95.9984 36.455 95.9984 35.0298V21.6364H99.0708V34.7812C99.0708 35.7027 99.273 36.5213 99.6774 37.2372C100.088 37.9531 100.668 38.5166 101.417 38.9276C102.166 39.3319 103.055 39.5341 104.082 39.5341C105.116 39.5341 106.008 39.3319 106.757 38.9276C107.513 38.5166 108.089 37.9531 108.487 37.2372C108.891 36.5213 109.094 35.7027 109.094 34.7812V21.6364ZM137.079 21.6364V42H134.255L123.904 27.0653H123.715V42H120.643V21.6364H123.487L133.847 36.5909H134.036V21.6364H137.079ZM147.281 42H144.02L151.348 21.6364H154.898L162.226 42H158.964L153.207 25.3352H153.048L147.281 42ZM147.828 34.0256H158.407V36.6108H147.828V34.0256ZM169.166 42V21.6364H176.425C178.003 21.6364 179.312 21.9081 180.352 22.4517C181.4 22.9953 182.182 23.7476 182.699 24.7088C183.216 25.6634 183.475 26.767 183.475 28.0199C183.475 29.2661 183.213 30.3632 182.689 31.3111C182.172 32.2524 181.39 32.9848 180.342 33.5085C179.302 34.0322 177.993 34.294 176.415 34.294H170.916V31.6491H176.137C177.131 31.6491 177.94 31.5066 178.563 31.2216C179.192 30.9366 179.653 30.5223 179.945 29.9787C180.236 29.4351 180.382 28.7822 180.382 28.0199C180.382 27.2509 180.233 26.5848 179.935 26.0213C179.643 25.4579 179.182 25.027 178.553 24.7287C177.93 24.4238 177.111 24.2713 176.097 24.2713H172.239V42H169.166ZM179.219 32.8125L184.25 42H180.75L175.818 32.8125H179.219ZM192.933 42H189.672L197 21.6364H200.55L207.878 42H204.617L198.86 25.3352H198.7L192.933 42ZM193.48 34.0256H204.06V36.6108H193.48V34.0256ZM216.539 42.1889C215.995 42.1889 215.528 41.9967 215.137 41.6122C214.746 41.2211 214.55 40.7505 214.55 40.2003C214.55 39.6567 214.746 39.1927 215.137 38.8082C215.528 38.4171 215.995 38.2216 216.539 38.2216C217.082 38.2216 217.55 38.4171 217.941 38.8082C218.332 39.1927 218.528 39.6567 218.528 40.2003C218.528 40.5649 218.435 40.8996 218.249 41.2045C218.07 41.5028 217.831 41.7415 217.533 41.9205C217.235 42.0994 216.903 42.1889 216.539 42.1889ZM228.469 42H225.207L232.535 21.6364H236.085L243.413 42H240.152L234.395 25.3352H234.236L228.469 42ZM229.015 34.0256H239.595V36.6108H229.015V34.0256ZM253.426 21.6364V42H250.354V21.6364H253.426Z" fill="white" fill-opacity="0.85"/>

</svg>
